<svg xmlns="http://www.w3.org/2000/svg" viewBox="-97 -788 868 868" role="img" aria-label="Resumaker">
  <title>Resumaker</title>
  <path fill="#2563EB" fill-rule="nonzero" d="M 206.05 -586.91 L 206.05 -370.12 L 309.57 -370.12 C 395.51 -370.12 438.48 -405.6 438.48 -476.56 C 438.48 -512.7 427.73 -540.12 406.25 -558.84 C 384.77 -577.56 352.54 -586.91 309.57 -586.91 L 206.05 -586.91 Z M 59.57 -707.03 L 336.91 -707.03 C 389.97 -707.03 435.47 -697.59 473.39 -678.71 C 511.31 -659.83 540.2 -633.06 560.06 -598.39 C 579.92 -563.72 589.84 -523.11 589.84 -476.56 C 589.84 -428.39 579.1 -387.04 557.62 -352.54 C 536.13 -318.03 505.21 -292.15 464.84 -274.9 L 615.23 0 L 453.12 0 L 317.87 -250.98 L 206.05 -250.98 L 206.05 0 L 59.57 0 L 59.57 -707.03 Z"/>
</svg>